{
    "asset" : {
        "generator" : "Khronos glTF Blender I/O v1.1.46",
        "version" : "2.0"
    },
    "scene" : 0,
    "scenes" : [
        {
            "name" : "Scene",
            "nodes" : [
                0,
                1
            ]
        }
    ],
    "nodes" : [
        {
            "mesh" : 0,
            "name" : "Cylinder",
            "rotation" : [
                0.7071068286895752,
                0,
                0,
                0.7071067094802856
            ]
        },
        {
            "mesh" : 1,
            "name" : "Text",
            "rotation" : [
                0.7071068286895752,
                0,
                0,
                0.7071067094802856
            ]
        }
    ],
    "materials" : [
        {
            "doubleSided" : true,
            "emissiveFactor" : [
                0,
                0,
                0
            ],
            "name" : "Material.002",
            "normalTexture" : {
                "index" : 0,
                "texCoord" : 0
            },
            "pbrMetallicRoughness" : {
                "baseColorTexture" : {
                    "index" : 1,
                    "texCoord" : 0
                },
                "metallicRoughnessTexture" : {
                    "index" : 2,
                    "texCoord" : 0
                }
            }
        },
        {
            "doubleSided" : true,
            "emissiveFactor" : [
                0,
                0,
                0
            ],
            "name" : "Material.001",
            "pbrMetallicRoughness" : {
                "baseColorFactor" : [
                    0.3503859341144562,
                    0.27190127968788147,
                    0.27190127968788147,
                    1
                ],
                "metallicFactor" : 0.8136358857154846,
                "roughnessFactor" : 0.12727272510528564
            }
        }
    ],
    "meshes" : [
        {
            "name" : "Cylinder",
            "primitives" : [
                {
                    "attributes" : {
                        "POSITION" : 0,
                        "NORMAL" : 1,
                        "TEXCOORD_0" : 2
                    },
                    "indices" : 3,
                    "material" : 0
                }
            ]
        },
        {
            "name" : "Text",
            "primitives" : [
                {
                    "attributes" : {
                        "POSITION" : 4,
                        "NORMAL" : 5,
                        "TEXCOORD_0" : 6
                    },
                    "indices" : 7,
                    "material" : 1
                }
            ]
        }
    ],
    "textures" : [
        {
            "source" : 0
        },
        {
            "source" : 1
        },
        {
            "source" : 2
        }
    ],
    "images" : [
        {
            "mimeType" : "image/png",
            "name" : "Material.001_Height",
            "uri" : "gaynlord/Material_001_Height.png"
        },
        {
            "mimeType" : "image/png",
            "name" : "Material.002_Base_Color",
            "uri" : "gaynlord/Material_002_Base_Color.png"
        },
        {
            "mimeType" : "image/png",
            "name" : "Material.001_Metallic-Material.001_Roughness",
            "uri" : "gaynlord/Material_001_Metallic-Material_001_Roughness.png"
        }
    ],
    "accessors" : [
        {
            "bufferView" : 0,
            "componentType" : 5126,
            "count" : 3369,
            "max" : [
                0.9935950040817261,
                0.9935950040817261,
                0.08254099637269974
            ],
            "min" : [
                -0.9935950040817261,
                -0.9935950040817261,
                -0.11989700049161911
            ],
            "type" : "VEC3"
        },
        {
            "bufferView" : 1,
            "componentType" : 5126,
            "count" : 3369,
            "type" : "VEC3"
        },
        {
            "bufferView" : 2,
            "componentType" : 5126,
            "count" : 3369,
            "type" : "VEC2"
        },
        {
            "bufferView" : 3,
            "componentType" : 5123,
            "count" : 19200,
            "type" : "SCALAR"
        },
        {
            "bufferView" : 4,
            "componentType" : 5126,
            "count" : 40,
            "max" : [
                0.29096299409866333,
                0.3642210066318512,
                -0.07175000011920929
            ],
            "min" : [
                -0.37346699833869934,
                -0.3637790083885193,
                -0.19175000488758087
            ],
            "type" : "VEC3"
        },
        {
            "bufferView" : 5,
            "componentType" : 5126,
            "count" : 40,
            "type" : "VEC3"
        },
        {
            "bufferView" : 6,
            "componentType" : 5126,
            "count" : 40,
            "type" : "VEC2"
        },
        {
            "bufferView" : 7,
            "componentType" : 5123,
            "count" : 72,
            "type" : "SCALAR"
        }
    ],
    "bufferViews" : [
        {
            "buffer" : 0,
            "byteLength" : 40428,
            "byteOffset" : 0
        },
        {
            "buffer" : 0,
            "byteLength" : 40428,
            "byteOffset" : 40428
        },
        {
            "buffer" : 0,
            "byteLength" : 26952,
            "byteOffset" : 80856
        },
        {
            "buffer" : 0,
            "byteLength" : 38400,
            "byteOffset" : 107808
        },
        {
            "buffer" : 0,
            "byteLength" : 480,
            "byteOffset" : 146208
        },
        {
            "buffer" : 0,
            "byteLength" : 480,
            "byteOffset" : 146688
        },
        {
            "buffer" : 0,
            "byteLength" : 320,
            "byteOffset" : 147168
        },
        {
            "buffer" : 0,
            "byteLength" : 144,
            "byteOffset" : 147488
        }
    ],
    "buffers" : [
        {
            "byteLength" : 147632,
            "uri" : "untitled.bin"
        }
    ]
}
